<mxfile host="Electron" agent="Mozilla/5.0 (Macintosh; Intel Mac OS X 10_15_7) AppleWebKit/537.36 (KHTML, like Gecko) draw.io/26.0.16 Chrome/132.0.6834.196 Electron/34.2.0 Safari/537.36" version="26.0.16">
  <diagram name="Page-1" id="euBkLFr2ov__EOV1Y5Rs">
    <mxGraphModel dx="4285" dy="1877" grid="1" gridSize="10" guides="1" tooltips="1" connect="1" arrows="1" fold="1" page="1" pageScale="1" pageWidth="1654" pageHeight="1169" math="0" shadow="0">
      <root>
        <mxCell id="0" />
        <mxCell id="1" parent="0" />
        <mxCell id="7TX2rSaXaKqozd_B92K4-22" value="" style="rounded=1;whiteSpace=wrap;html=1;fillColor=#f5f5f5;fontColor=#333333;strokeColor=#666666;" vertex="1" parent="1">
          <mxGeometry x="-1750" y="-560" width="400" height="330" as="geometry" />
        </mxCell>
        <mxCell id="7TX2rSaXaKqozd_B92K4-23" style="edgeStyle=orthogonalEdgeStyle;rounded=0;orthogonalLoop=1;jettySize=auto;html=1;exitX=1;exitY=0.5;exitDx=0;exitDy=0;entryX=0;entryY=0.5;entryDx=0;entryDy=0;" edge="1" parent="1" source="7TX2rSaXaKqozd_B92K4-25" target="7TX2rSaXaKqozd_B92K4-29">
          <mxGeometry relative="1" as="geometry" />
        </mxCell>
        <mxCell id="7TX2rSaXaKqozd_B92K4-24" value="&lt;font style=&quot;font-size: 14px;&quot;&gt;geo:coveredBy&lt;/font&gt;" style="edgeLabel;html=1;align=center;verticalAlign=middle;resizable=0;points=[];" vertex="1" connectable="0" parent="7TX2rSaXaKqozd_B92K4-23">
          <mxGeometry x="0.0112" y="1" relative="1" as="geometry">
            <mxPoint x="-9" y="1" as="offset" />
          </mxGeometry>
        </mxCell>
        <mxCell id="7TX2rSaXaKqozd_B92K4-25" value="&lt;span style=&quot;font-weight: normal;&quot;&gt;mfd:RasterCell&lt;/span&gt;" style="ellipse;whiteSpace=wrap;html=1;fontSize=16;fontStyle=1;strokeColor=#D79B00;fillColor=#FFE6CC;" vertex="1" parent="1">
          <mxGeometry x="-1723" y="-320" width="120" height="80" as="geometry" />
        </mxCell>
        <mxCell id="7TX2rSaXaKqozd_B92K4-26" value="" style="edgeStyle=orthogonalEdgeStyle;rounded=0;orthogonalLoop=1;jettySize=auto;html=1;" edge="1" parent="1" source="7TX2rSaXaKqozd_B92K4-28" target="7TX2rSaXaKqozd_B92K4-25">
          <mxGeometry relative="1" as="geometry" />
        </mxCell>
        <mxCell id="7TX2rSaXaKqozd_B92K4-27" value="rdfs:member" style="edgeLabel;html=1;align=center;verticalAlign=middle;resizable=0;points=[];fontSize=14;" vertex="1" connectable="0" parent="7TX2rSaXaKqozd_B92K4-26">
          <mxGeometry x="-0.0321" relative="1" as="geometry">
            <mxPoint as="offset" />
          </mxGeometry>
        </mxCell>
        <mxCell id="7TX2rSaXaKqozd_B92K4-28" value="&lt;span style=&quot;font-weight: normal;&quot;&gt;mfd:RasterFile&lt;/span&gt;" style="ellipse;whiteSpace=wrap;html=1;fontSize=16;fontStyle=1" vertex="1" parent="1">
          <mxGeometry x="-1723" y="-480" width="120" height="80" as="geometry" />
        </mxCell>
        <mxCell id="7TX2rSaXaKqozd_B92K4-29" value="kwg-ont:S2Cell" style="ellipse;whiteSpace=wrap;html=1;fontSize=16;fontStyle=1" vertex="1" parent="1">
          <mxGeometry x="-1480" y="-320" width="120" height="80" as="geometry" />
        </mxCell>
        <mxCell id="7TX2rSaXaKqozd_B92K4-30" value="Provenance Graph" style="text;html=1;align=center;verticalAlign=top;whiteSpace=wrap;rounded=0;fontSize=20;fontStyle=5" vertex="1" parent="1">
          <mxGeometry x="-1723" y="-535" width="187" height="65" as="geometry" />
        </mxCell>
      </root>
    </mxGraphModel>
  </diagram>
</mxfile>
